# xmcd
#
# Track frame offsets:
#	183
#	14358
#	23255
#	34338
#	63110
#	73990
#	85018
#	95900
#	111353
#	123658
#	138488
#	149745
#	160523
#	165645
#	188950
#	199668
#
# Disc length: 3027 seconds
#
# Revision: 2
# Processed by: cddbd v1.5.1PL2 Copyright (c) Steve Scherf et al.
# Submitted via: audiograbber 1.83.01
#
DISCID=e30bd110
DTITLE=Fats Domino - Platinum Collection (live)
DYEAR=1994
DGENRE=Oldies
TTITLE0=Blueberry Hill (live)
TTITLE1=I'm Ready (live)
TTITLE2=Ain't That A Shame (live)
TTITLE3=Medley a) So long b) CC. Rider (live)
TTITLE4=Hello Josephine (live)
TTITLE5=What A Price (live)
TTITLE6=Blue Monday (live)
TTITLE7=Jambalaya (live)
TTITLE8=Let The Four Winds Blow (live)
TTITLE9=I'm In The Mood For Love (live)
TTITLE10=I Want To Walk You Home (live)
TTITLE11=I'm Gonna Be A Wheel Someday (live)
TTITLE12=Whole Lotta Loving (live)
TTITLE13=Domino Twist (live)
TTITLE14=The Fat Man  (live)
TTITLE15=Please Don't Leave Me (live)
EXTD=
EXTT0=
EXTT1=
EXTT2=
EXTT3=
EXTT4=
EXTT5=
EXTT6=
EXTT7=
EXTT8=
EXTT9=
EXTT10=
EXTT11=
EXTT12=
EXTT13=
EXTT14=
EXTT15=
PLAYORDER=
